<mxfile host="app.diagrams.net" modified="2023-03-26T02:57:47.507Z" agent="Mozilla/5.0 (Windows NT 10.0; Win64; x64) AppleWebKit/537.36 (KHTML, like Gecko) Chrome/111.0.0.0 Safari/537.36" etag="AUCRyV5KgP1L72aXVveA" version="21.1.1" type="github">
  <diagram id="tFnie8OSN-FIjvjW90hg" name="Страница 1">
    <mxGraphModel dx="2049" dy="1106" grid="1" gridSize="10" guides="1" tooltips="1" connect="1" arrows="1" fold="1" page="1" pageScale="1" pageWidth="3300" pageHeight="4681" math="0" shadow="0">
      <root>
        <mxCell id="0" />
        <mxCell id="1" parent="0" />
        <mxCell id="f7szadTQui2fWb20hmRs-3" value="Клиент" style="shape=umlActor;verticalLabelPosition=bottom;verticalAlign=top;html=1;shadow=1;fontSize=42;fontColor=#00CC00;" parent="1" vertex="1">
          <mxGeometry x="200" y="1330" width="80" height="160" as="geometry" />
        </mxCell>
        <mxCell id="f7szadTQui2fWb20hmRs-83" value="" style="group;fillColor=#ffcd28;gradientColor=#ffa500;strokeColor=none;" parent="1" vertex="1" connectable="0">
          <mxGeometry x="90" y="80" width="1310" height="1000" as="geometry" />
        </mxCell>
        <mxCell id="f7szadTQui2fWb20hmRs-82" value="&lt;font style=&quot;font-size: 42px;&quot;&gt;&lt;b style=&quot;font-size: 42px;&quot;&gt;Сервис BNPL&lt;/b&gt;&lt;/font&gt;" style="rounded=0;whiteSpace=wrap;html=1;shadow=0;fontSize=42;fillColor=#FB752F;fontColor=#ffffff;strokeColor=none;horizontal=1;verticalAlign=top;spacingTop=14;glass=0;" parent="f7szadTQui2fWb20hmRs-83" vertex="1">
          <mxGeometry width="1310" height="1000" as="geometry" />
        </mxCell>
        <mxCell id="f7szadTQui2fWb20hmRs-65" value="" style="group" parent="f7szadTQui2fWb20hmRs-83" vertex="1" connectable="0">
          <mxGeometry x="930" y="120" width="350" height="460" as="geometry" />
        </mxCell>
        <mxCell id="f7szadTQui2fWb20hmRs-77" value="" style="rounded=0;whiteSpace=wrap;html=1;shadow=1;fontSize=16;fillColor=#A1DA61;strokeColor=#d6b656;" parent="f7szadTQui2fWb20hmRs-65" vertex="1">
          <mxGeometry x="-10" y="-20" width="360" height="480" as="geometry" />
        </mxCell>
        <mxCell id="f7szadTQui2fWb20hmRs-41" value="Регистрация сделки" style="rounded=1;whiteSpace=wrap;html=1;absoluteArcSize=1;arcSize=14;strokeWidth=2;shadow=1;fillColor=#DA5524;strokeColor=#82b366;fontSize=16;fontColor=#ffffff;" parent="f7szadTQui2fWb20hmRs-65" vertex="1">
          <mxGeometry width="340" height="50" as="geometry" />
        </mxCell>
        <mxCell id="f7szadTQui2fWb20hmRs-42" value="Идентификация пользователя&amp;nbsp;" style="rounded=1;whiteSpace=wrap;html=1;absoluteArcSize=1;arcSize=14;strokeWidth=2;shadow=1;strokeColor=none;fontSize=16;" parent="f7szadTQui2fWb20hmRs-65" vertex="1">
          <mxGeometry y="130" width="340" height="50" as="geometry" />
        </mxCell>
        <mxCell id="f7szadTQui2fWb20hmRs-49" style="edgeStyle=orthogonalEdgeStyle;rounded=0;orthogonalLoop=1;jettySize=auto;html=1;" parent="f7szadTQui2fWb20hmRs-65" source="f7szadTQui2fWb20hmRs-41" target="f7szadTQui2fWb20hmRs-42" edge="1">
          <mxGeometry relative="1" as="geometry" />
        </mxCell>
        <mxCell id="f7szadTQui2fWb20hmRs-43" value="Проверка сделки, тарифа." style="rounded=1;whiteSpace=wrap;html=1;absoluteArcSize=1;arcSize=14;strokeWidth=2;shadow=1;fontSize=16;strokeColor=none;" parent="f7szadTQui2fWb20hmRs-65" vertex="1">
          <mxGeometry y="220" width="340" height="50" as="geometry" />
        </mxCell>
        <mxCell id="f7szadTQui2fWb20hmRs-44" value="" style="edgeStyle=orthogonalEdgeStyle;rounded=0;orthogonalLoop=1;jettySize=auto;html=1;" parent="f7szadTQui2fWb20hmRs-65" source="f7szadTQui2fWb20hmRs-42" target="f7szadTQui2fWb20hmRs-43" edge="1">
          <mxGeometry relative="1" as="geometry" />
        </mxCell>
        <mxCell id="f7szadTQui2fWb20hmRs-47" value="Утверждение транзакции" style="strokeWidth=2;html=1;shape=mxgraph.flowchart.document2;whiteSpace=wrap;size=0.25;shadow=1;fontSize=16;spacingTop=-16;strokeColor=none;" parent="f7szadTQui2fWb20hmRs-65" vertex="1">
          <mxGeometry y="350" width="140" height="80" as="geometry" />
        </mxCell>
        <mxCell id="f7szadTQui2fWb20hmRs-48" style="edgeStyle=orthogonalEdgeStyle;rounded=0;orthogonalLoop=1;jettySize=auto;html=1;" parent="f7szadTQui2fWb20hmRs-65" source="f7szadTQui2fWb20hmRs-43" target="f7szadTQui2fWb20hmRs-47" edge="1">
          <mxGeometry relative="1" as="geometry" />
        </mxCell>
        <mxCell id="f7szadTQui2fWb20hmRs-50" value="Предоставление торгового кредита" style="strokeWidth=2;html=1;shape=mxgraph.flowchart.document2;whiteSpace=wrap;size=0.25;shadow=1;strokeColor=none;fontSize=16;spacingTop=-16;" parent="f7szadTQui2fWb20hmRs-65" vertex="1">
          <mxGeometry x="200" y="350" width="140" height="80" as="geometry" />
        </mxCell>
        <mxCell id="f7szadTQui2fWb20hmRs-54" style="edgeStyle=orthogonalEdgeStyle;rounded=0;orthogonalLoop=1;jettySize=auto;html=1;entryX=0.5;entryY=0;entryDx=0;entryDy=0;entryPerimeter=0;" parent="f7szadTQui2fWb20hmRs-65" source="f7szadTQui2fWb20hmRs-43" target="f7szadTQui2fWb20hmRs-50" edge="1">
          <mxGeometry relative="1" as="geometry" />
        </mxCell>
        <mxCell id="f7szadTQui2fWb20hmRs-76" value="" style="group" parent="f7szadTQui2fWb20hmRs-83" vertex="1" connectable="0">
          <mxGeometry x="920" y="620" width="360" height="340" as="geometry" />
        </mxCell>
        <mxCell id="f7szadTQui2fWb20hmRs-75" value="" style="rounded=0;whiteSpace=wrap;html=1;shadow=1;fontSize=16;fillColor=#fff2cc;strokeColor=#d6b656;" parent="f7szadTQui2fWb20hmRs-76" vertex="1">
          <mxGeometry width="360" height="340" as="geometry" />
        </mxCell>
        <mxCell id="f7szadTQui2fWb20hmRs-66" value="" style="group" parent="f7szadTQui2fWb20hmRs-76" vertex="1" connectable="0">
          <mxGeometry x="10" y="30" width="350" height="310" as="geometry" />
        </mxCell>
        <mxCell id="f7szadTQui2fWb20hmRs-55" value="Расчет с продавцом" style="rounded=1;whiteSpace=wrap;html=1;absoluteArcSize=1;arcSize=14;strokeWidth=2;shadow=1;fillColor=#d5e8d4;strokeColor=#82b366;fontSize=16;" parent="f7szadTQui2fWb20hmRs-66" vertex="1">
          <mxGeometry width="340" height="50" as="geometry" />
        </mxCell>
        <mxCell id="f7szadTQui2fWb20hmRs-56" value="Идентификация сделки" style="rounded=1;whiteSpace=wrap;html=1;absoluteArcSize=1;arcSize=14;strokeWidth=2;shadow=1;" parent="f7szadTQui2fWb20hmRs-66" vertex="1">
          <mxGeometry y="130" width="340" height="50" as="geometry" />
        </mxCell>
        <mxCell id="f7szadTQui2fWb20hmRs-59" style="edgeStyle=orthogonalEdgeStyle;rounded=0;orthogonalLoop=1;jettySize=auto;html=1;" parent="f7szadTQui2fWb20hmRs-66" source="f7szadTQui2fWb20hmRs-55" target="f7szadTQui2fWb20hmRs-56" edge="1">
          <mxGeometry relative="1" as="geometry" />
        </mxCell>
        <mxCell id="f7szadTQui2fWb20hmRs-57" value="Выплата суммы сделки с удержанием комиссии" style="rounded=1;whiteSpace=wrap;html=1;absoluteArcSize=1;arcSize=14;strokeWidth=2;shadow=1;" parent="f7szadTQui2fWb20hmRs-66" vertex="1">
          <mxGeometry y="220" width="340" height="50" as="geometry" />
        </mxCell>
        <mxCell id="f7szadTQui2fWb20hmRs-58" value="" style="edgeStyle=orthogonalEdgeStyle;rounded=0;orthogonalLoop=1;jettySize=auto;html=1;" parent="f7szadTQui2fWb20hmRs-66" source="f7szadTQui2fWb20hmRs-56" target="f7szadTQui2fWb20hmRs-57" edge="1">
          <mxGeometry relative="1" as="geometry" />
        </mxCell>
        <mxCell id="xhNkxKPSbNm9u22-jXD2-1" value="" style="group" vertex="1" connectable="0" parent="f7szadTQui2fWb20hmRs-66">
          <mxGeometry x="-10" y="-30" width="360" height="340" as="geometry" />
        </mxCell>
        <mxCell id="xhNkxKPSbNm9u22-jXD2-2" value="" style="rounded=0;whiteSpace=wrap;html=1;shadow=1;fontSize=16;fillColor=#a1da61;strokeColor=#d6b656;" vertex="1" parent="xhNkxKPSbNm9u22-jXD2-1">
          <mxGeometry width="360" height="340" as="geometry" />
        </mxCell>
        <mxCell id="xhNkxKPSbNm9u22-jXD2-3" value="" style="group" vertex="1" connectable="0" parent="xhNkxKPSbNm9u22-jXD2-1">
          <mxGeometry x="10" y="30" width="340" height="270" as="geometry" />
        </mxCell>
        <mxCell id="xhNkxKPSbNm9u22-jXD2-4" value="Расчет с продавцом" style="rounded=1;whiteSpace=wrap;html=1;absoluteArcSize=1;arcSize=14;strokeWidth=2;shadow=1;fillColor=#DA5524;strokeColor=#82b366;fontSize=16;fontColor=#FFFFFF;" vertex="1" parent="xhNkxKPSbNm9u22-jXD2-3">
          <mxGeometry width="340" height="50" as="geometry" />
        </mxCell>
        <mxCell id="xhNkxKPSbNm9u22-jXD2-5" value="Идентификация сделки" style="rounded=1;whiteSpace=wrap;html=1;absoluteArcSize=1;arcSize=14;strokeWidth=2;shadow=1;fontSize=16;strokeColor=none;" vertex="1" parent="xhNkxKPSbNm9u22-jXD2-3">
          <mxGeometry y="130" width="340" height="50" as="geometry" />
        </mxCell>
        <mxCell id="xhNkxKPSbNm9u22-jXD2-6" style="edgeStyle=orthogonalEdgeStyle;rounded=0;orthogonalLoop=1;jettySize=auto;html=1;" edge="1" parent="xhNkxKPSbNm9u22-jXD2-3" source="xhNkxKPSbNm9u22-jXD2-4" target="xhNkxKPSbNm9u22-jXD2-5">
          <mxGeometry relative="1" as="geometry" />
        </mxCell>
        <mxCell id="xhNkxKPSbNm9u22-jXD2-7" value="Выплата суммы сделки с удержанием комиссии" style="rounded=1;whiteSpace=wrap;html=1;absoluteArcSize=1;arcSize=14;strokeWidth=2;shadow=1;strokeColor=none;fontSize=16;" vertex="1" parent="xhNkxKPSbNm9u22-jXD2-3">
          <mxGeometry y="220" width="340" height="50" as="geometry" />
        </mxCell>
        <mxCell id="xhNkxKPSbNm9u22-jXD2-8" value="" style="edgeStyle=orthogonalEdgeStyle;orthogonalLoop=1;jettySize=auto;html=1;rounded=0;" edge="1" parent="xhNkxKPSbNm9u22-jXD2-3" source="xhNkxKPSbNm9u22-jXD2-5" target="xhNkxKPSbNm9u22-jXD2-7">
          <mxGeometry relative="1" as="geometry" />
        </mxCell>
        <mxCell id="f7szadTQui2fWb20hmRs-73" value="" style="group" parent="f7szadTQui2fWb20hmRs-83" vertex="1" connectable="0">
          <mxGeometry x="470" y="620" width="360" height="340" as="geometry" />
        </mxCell>
        <mxCell id="f7szadTQui2fWb20hmRs-72" value="" style="rounded=0;whiteSpace=wrap;html=1;shadow=1;fillColor=#A1DA61;strokeColor=#d6b656;" parent="f7szadTQui2fWb20hmRs-73" vertex="1">
          <mxGeometry width="360" height="339.99999999999994" as="geometry" />
        </mxCell>
        <mxCell id="f7szadTQui2fWb20hmRs-33" value="&lt;font style=&quot;font-size: 16px;&quot;&gt;Определение доступных тарифов оплаты&lt;/font&gt;" style="rounded=1;whiteSpace=wrap;html=1;absoluteArcSize=1;arcSize=14;strokeWidth=2;shadow=1;fillColor=#DA5524;strokeColor=#82b366;fontSize=24;fontColor=#FFFFFF;" parent="f7szadTQui2fWb20hmRs-73" vertex="1">
          <mxGeometry x="10" y="18.2686567164179" width="340" height="50.74626865671641" as="geometry" />
        </mxCell>
        <mxCell id="f7szadTQui2fWb20hmRs-36" value="Идентификация пользователя&amp;nbsp;" style="rounded=1;whiteSpace=wrap;html=1;absoluteArcSize=1;arcSize=14;strokeWidth=2;shadow=1;strokeColor=none;fontSize=16;" parent="f7szadTQui2fWb20hmRs-73" vertex="1">
          <mxGeometry x="10" y="150.20895522388054" width="340" height="50.74626865671641" as="geometry" />
        </mxCell>
        <mxCell id="f7szadTQui2fWb20hmRs-39" style="edgeStyle=orthogonalEdgeStyle;rounded=0;orthogonalLoop=1;jettySize=auto;html=1;entryX=0.5;entryY=0;entryDx=0;entryDy=0;" parent="f7szadTQui2fWb20hmRs-73" source="f7szadTQui2fWb20hmRs-33" target="f7szadTQui2fWb20hmRs-36" edge="1">
          <mxGeometry relative="1" as="geometry" />
        </mxCell>
        <mxCell id="f7szadTQui2fWb20hmRs-38" value="Список доступных тарифов оплаты" style="strokeWidth=2;html=1;shape=mxgraph.flowchart.document2;whiteSpace=wrap;size=0.25;shadow=1;fontSize=16;strokeColor=none;spacingTop=-16;" parent="f7szadTQui2fWb20hmRs-73" vertex="1">
          <mxGeometry x="110" y="241.5522388059701" width="140" height="81.19402985074625" as="geometry" />
        </mxCell>
        <mxCell id="f7szadTQui2fWb20hmRs-40" style="edgeStyle=orthogonalEdgeStyle;rounded=0;orthogonalLoop=1;jettySize=auto;html=1;entryX=0.5;entryY=0;entryDx=0;entryDy=0;entryPerimeter=0;" parent="f7szadTQui2fWb20hmRs-73" source="f7szadTQui2fWb20hmRs-36" target="f7szadTQui2fWb20hmRs-38" edge="1">
          <mxGeometry relative="1" as="geometry" />
        </mxCell>
        <mxCell id="xhNkxKPSbNm9u22-jXD2-32" value="" style="group" vertex="1" connectable="0" parent="f7szadTQui2fWb20hmRs-83">
          <mxGeometry x="20" y="620" width="360" height="340" as="geometry" />
        </mxCell>
        <mxCell id="f7szadTQui2fWb20hmRs-74" value="" style="rounded=0;whiteSpace=wrap;html=1;shadow=1;fontSize=16;fillColor=#A1DA61;strokeColor=#d6b656;container=0;" parent="xhNkxKPSbNm9u22-jXD2-32" vertex="1">
          <mxGeometry width="360" height="340" as="geometry" />
        </mxCell>
        <mxCell id="f7szadTQui2fWb20hmRs-60" value="Расчет с клиентом" style="rounded=1;whiteSpace=wrap;html=1;absoluteArcSize=1;arcSize=14;strokeWidth=2;shadow=1;fillColor=#DA5524;strokeColor=#82b366;fontSize=16;fontColor=#FFFFFF;container=0;" parent="xhNkxKPSbNm9u22-jXD2-32" vertex="1">
          <mxGeometry x="10" y="20" width="340" height="50" as="geometry" />
        </mxCell>
        <mxCell id="f7szadTQui2fWb20hmRs-61" value="Списание средств со счета клиента, согласно выбранному тарифу" style="rounded=1;whiteSpace=wrap;html=1;absoluteArcSize=1;arcSize=14;strokeWidth=2;shadow=1;fontSize=16;strokeColor=none;container=0;" parent="xhNkxKPSbNm9u22-jXD2-32" vertex="1">
          <mxGeometry x="10" y="150" width="340" height="50" as="geometry" />
        </mxCell>
        <mxCell id="f7szadTQui2fWb20hmRs-62" style="edgeStyle=orthogonalEdgeStyle;rounded=0;orthogonalLoop=1;jettySize=auto;html=1;" parent="xhNkxKPSbNm9u22-jXD2-32" source="f7szadTQui2fWb20hmRs-60" target="f7szadTQui2fWb20hmRs-61" edge="1">
          <mxGeometry relative="1" as="geometry" />
        </mxCell>
        <mxCell id="f7szadTQui2fWb20hmRs-70" value="" style="rounded=0;whiteSpace=wrap;html=1;shadow=1;fillColor=#A1DA61;strokeColor=#d6b656;container=0;" parent="f7szadTQui2fWb20hmRs-83" vertex="1">
          <mxGeometry x="20" y="110" width="810" height="440" as="geometry" />
        </mxCell>
        <mxCell id="f7szadTQui2fWb20hmRs-8" value="&lt;font style=&quot;font-size: 16px;&quot;&gt;Регистрация клиента в сервисе&lt;/font&gt;" style="rounded=1;whiteSpace=wrap;html=1;absoluteArcSize=1;arcSize=14;strokeWidth=2;shadow=1;container=0;fillColor=#DA5524;strokeColor=#82b366;fontSize=24;fontColor=#ffffff;" parent="f7szadTQui2fWb20hmRs-83" vertex="1">
          <mxGeometry x="40" y="130" width="780" height="50" as="geometry" />
        </mxCell>
        <mxCell id="f7szadTQui2fWb20hmRs-12" value="Аккаунт" style="strokeWidth=2;html=1;shape=mxgraph.flowchart.document2;whiteSpace=wrap;size=0.25;shadow=1;container=0;fontSize=16;strokeColor=none;spacingTop=-8;" parent="f7szadTQui2fWb20hmRs-83" vertex="1">
          <mxGeometry x="290" y="290" width="170" height="50" as="geometry" />
        </mxCell>
        <mxCell id="f7szadTQui2fWb20hmRs-13" value="Подтверждение состоятельности" style="strokeWidth=2;html=1;shape=mxgraph.flowchart.document2;whiteSpace=wrap;size=0.25;shadow=1;container=0;fontSize=16;spacingTop=-8;strokeColor=none;" parent="f7szadTQui2fWb20hmRs-83" vertex="1">
          <mxGeometry x="290" y="380" width="170" height="70" as="geometry" />
        </mxCell>
        <mxCell id="f7szadTQui2fWb20hmRs-24" style="edgeStyle=orthogonalEdgeStyle;rounded=0;orthogonalLoop=1;jettySize=auto;html=1;exitX=1;exitY=0.5;exitDx=0;exitDy=0;entryX=0;entryY=0.5;entryDx=0;entryDy=0;entryPerimeter=0;" parent="f7szadTQui2fWb20hmRs-83" source="f7szadTQui2fWb20hmRs-16" target="f7szadTQui2fWb20hmRs-13" edge="1">
          <mxGeometry relative="1" as="geometry" />
        </mxCell>
        <mxCell id="f7szadTQui2fWb20hmRs-16" value="Проверка кредитного рейтинга" style="rounded=1;whiteSpace=wrap;html=1;absoluteArcSize=1;arcSize=14;strokeWidth=2;shadow=1;container=0;fontSize=16;strokeColor=none;" parent="f7szadTQui2fWb20hmRs-83" vertex="1">
          <mxGeometry x="60" y="385" width="180" height="60" as="geometry" />
        </mxCell>
        <mxCell id="f7szadTQui2fWb20hmRs-22" style="edgeStyle=orthogonalEdgeStyle;rounded=0;orthogonalLoop=1;jettySize=auto;html=1;exitX=1;exitY=0.5;exitDx=0;exitDy=0;entryX=0;entryY=0.5;entryDx=0;entryDy=0;entryPerimeter=0;startArrow=none;" parent="f7szadTQui2fWb20hmRs-83" target="f7szadTQui2fWb20hmRs-12" edge="1">
          <mxGeometry relative="1" as="geometry">
            <mxPoint x="290" y="315" as="sourcePoint" />
          </mxGeometry>
        </mxCell>
        <mxCell id="f7szadTQui2fWb20hmRs-37" style="edgeStyle=orthogonalEdgeStyle;rounded=0;orthogonalLoop=1;jettySize=auto;html=1;entryX=0;entryY=0.5;entryDx=0;entryDy=0;entryPerimeter=0;" parent="f7szadTQui2fWb20hmRs-83" source="f7szadTQui2fWb20hmRs-20" target="f7szadTQui2fWb20hmRs-12" edge="1">
          <mxGeometry relative="1" as="geometry" />
        </mxCell>
        <mxCell id="f7szadTQui2fWb20hmRs-20" value="Создание учетной записи" style="rounded=1;whiteSpace=wrap;html=1;absoluteArcSize=1;arcSize=14;strokeWidth=2;shadow=1;container=0;strokeColor=none;fontSize=16;" parent="f7szadTQui2fWb20hmRs-83" vertex="1">
          <mxGeometry x="60" y="290" width="180" height="50" as="geometry" />
        </mxCell>
        <mxCell id="f7szadTQui2fWb20hmRs-21" style="edgeStyle=orthogonalEdgeStyle;orthogonalLoop=1;jettySize=auto;html=1;entryX=0.5;entryY=0;entryDx=0;entryDy=0;curved=1;" parent="f7szadTQui2fWb20hmRs-83" source="f7szadTQui2fWb20hmRs-8" target="f7szadTQui2fWb20hmRs-20" edge="1">
          <mxGeometry relative="1" as="geometry" />
        </mxCell>
        <mxCell id="f7szadTQui2fWb20hmRs-17" value="" style="edgeStyle=orthogonalEdgeStyle;rounded=0;orthogonalLoop=1;jettySize=auto;html=1;exitX=0.5;exitY=1;exitDx=0;exitDy=0;" parent="f7szadTQui2fWb20hmRs-83" source="f7szadTQui2fWb20hmRs-20" target="f7szadTQui2fWb20hmRs-16" edge="1">
          <mxGeometry relative="1" as="geometry" />
        </mxCell>
        <mxCell id="f7szadTQui2fWb20hmRs-29" style="edgeStyle=orthogonalEdgeStyle;rounded=0;orthogonalLoop=1;jettySize=auto;html=1;exitX=0;exitY=0.5;exitDx=0;exitDy=0;exitPerimeter=0;entryX=1;entryY=0.5;entryDx=0;entryDy=0;entryPerimeter=0;" parent="f7szadTQui2fWb20hmRs-83" source="f7szadTQui2fWb20hmRs-26" target="f7szadTQui2fWb20hmRs-12" edge="1">
          <mxGeometry relative="1" as="geometry">
            <mxPoint x="560" y="265" as="sourcePoint" />
          </mxGeometry>
        </mxCell>
        <mxCell id="f7szadTQui2fWb20hmRs-26" value="Расчетный счет" style="strokeWidth=2;html=1;shape=mxgraph.flowchart.document2;whiteSpace=wrap;size=0.25;shadow=1;container=0;fontSize=16;strokeColor=none;spacingTop=-8;" parent="f7szadTQui2fWb20hmRs-83" vertex="1">
          <mxGeometry x="560" y="290" width="200" height="50" as="geometry" />
        </mxCell>
        <mxCell id="f7szadTQui2fWb20hmRs-28" style="edgeStyle=orthogonalEdgeStyle;orthogonalLoop=1;jettySize=auto;html=1;exitX=0;exitY=0.5;exitDx=0;exitDy=0;exitPerimeter=0;entryX=1;entryY=0.5;entryDx=0;entryDy=0;entryPerimeter=0;curved=1;" parent="f7szadTQui2fWb20hmRs-83" source="f7szadTQui2fWb20hmRs-27" target="f7szadTQui2fWb20hmRs-12" edge="1">
          <mxGeometry relative="1" as="geometry" />
        </mxCell>
        <mxCell id="f7szadTQui2fWb20hmRs-27" value="Корпоративная карта (кредитная или дебетовая)" style="strokeWidth=2;html=1;shape=mxgraph.flowchart.document2;whiteSpace=wrap;size=0.25;shadow=1;container=0;fontSize=16;spacing=2;spacingTop=-20;strokeColor=none;" parent="f7szadTQui2fWb20hmRs-83" vertex="1">
          <mxGeometry x="560" y="355" width="200" height="100" as="geometry" />
        </mxCell>
        <mxCell id="xhNkxKPSbNm9u22-jXD2-47" style="edgeStyle=orthogonalEdgeStyle;orthogonalLoop=1;jettySize=auto;html=1;entryX=1;entryY=0.25;entryDx=0;entryDy=0;exitX=1;exitY=0.5;exitDx=0;exitDy=0;curved=1;" edge="1" parent="f7szadTQui2fWb20hmRs-83" source="f7szadTQui2fWb20hmRs-41" target="xhNkxKPSbNm9u22-jXD2-4">
          <mxGeometry relative="1" as="geometry">
            <Array as="points">
              <mxPoint x="1330" y="145" />
              <mxPoint x="1330" y="663" />
            </Array>
          </mxGeometry>
        </mxCell>
        <mxCell id="xhNkxKPSbNm9u22-jXD2-48" style="edgeStyle=orthogonalEdgeStyle;orthogonalLoop=1;jettySize=auto;html=1;entryX=0.5;entryY=0;entryDx=0;entryDy=0;curved=1;" edge="1" parent="f7szadTQui2fWb20hmRs-83" source="f7szadTQui2fWb20hmRs-41" target="f7szadTQui2fWb20hmRs-60">
          <mxGeometry relative="1" as="geometry">
            <Array as="points">
              <mxPoint x="870" y="145" />
              <mxPoint x="870" y="580" />
              <mxPoint x="200" y="580" />
            </Array>
          </mxGeometry>
        </mxCell>
        <mxCell id="xhNkxKPSbNm9u22-jXD2-36" value="" style="group;spacingTop=0;" vertex="1" connectable="0" parent="1">
          <mxGeometry x="505" y="1145" width="480" height="730" as="geometry" />
        </mxCell>
        <mxCell id="xhNkxKPSbNm9u22-jXD2-35" value="&lt;font style=&quot;font-size: 42px;&quot;&gt;Торговая площадка&lt;/font&gt;" style="rounded=0;whiteSpace=wrap;html=1;fillColor=#67AB9F;strokeColor=none;fontColor=#FFFFFF;verticalAlign=top;spacingTop=8;" vertex="1" parent="xhNkxKPSbNm9u22-jXD2-36">
          <mxGeometry width="480" height="730" as="geometry" />
        </mxCell>
        <mxCell id="xhNkxKPSbNm9u22-jXD2-9" value="Выбор товаров" style="rounded=1;whiteSpace=wrap;html=1;fontSize=16;strokeColor=none;shadow=1;" vertex="1" parent="xhNkxKPSbNm9u22-jXD2-36">
          <mxGeometry x="150" y="218" width="170" height="80" as="geometry" />
        </mxCell>
        <mxCell id="xhNkxKPSbNm9u22-jXD2-10" value="Оформление сделки" style="rounded=1;whiteSpace=wrap;html=1;fontSize=16;strokeColor=none;shadow=1;" vertex="1" parent="xhNkxKPSbNm9u22-jXD2-36">
          <mxGeometry x="150" y="345" width="170" height="80" as="geometry" />
        </mxCell>
        <mxCell id="xhNkxKPSbNm9u22-jXD2-28" style="edgeStyle=orthogonalEdgeStyle;rounded=0;orthogonalLoop=1;jettySize=auto;html=1;" edge="1" parent="xhNkxKPSbNm9u22-jXD2-36" source="xhNkxKPSbNm9u22-jXD2-9" target="xhNkxKPSbNm9u22-jXD2-10">
          <mxGeometry relative="1" as="geometry" />
        </mxCell>
        <mxCell id="xhNkxKPSbNm9u22-jXD2-12" value="Выбор&lt;br style=&quot;font-size: 16px;&quot;&gt;варианта&lt;br style=&quot;font-size: 16px;&quot;&gt;оплаты частями" style="rounded=1;whiteSpace=wrap;html=1;fontSize=16;strokeColor=none;shadow=1;" vertex="1" parent="xhNkxKPSbNm9u22-jXD2-36">
          <mxGeometry x="150" y="473" width="170" height="80" as="geometry" />
        </mxCell>
        <mxCell id="xhNkxKPSbNm9u22-jXD2-29" style="edgeStyle=orthogonalEdgeStyle;rounded=0;orthogonalLoop=1;jettySize=auto;html=1;" edge="1" parent="xhNkxKPSbNm9u22-jXD2-36" source="xhNkxKPSbNm9u22-jXD2-10" target="xhNkxKPSbNm9u22-jXD2-12">
          <mxGeometry relative="1" as="geometry" />
        </mxCell>
        <mxCell id="xhNkxKPSbNm9u22-jXD2-15" value="Завершение&lt;br style=&quot;font-size: 16px;&quot;&gt;сделки" style="rounded=1;whiteSpace=wrap;html=1;fontSize=16;strokeColor=none;shadow=1;" vertex="1" parent="xhNkxKPSbNm9u22-jXD2-36">
          <mxGeometry x="150" y="600" width="170" height="80" as="geometry" />
        </mxCell>
        <mxCell id="xhNkxKPSbNm9u22-jXD2-30" style="edgeStyle=orthogonalEdgeStyle;rounded=0;orthogonalLoop=1;jettySize=auto;html=1;" edge="1" parent="xhNkxKPSbNm9u22-jXD2-36" source="xhNkxKPSbNm9u22-jXD2-12" target="xhNkxKPSbNm9u22-jXD2-15">
          <mxGeometry relative="1" as="geometry" />
        </mxCell>
        <mxCell id="xhNkxKPSbNm9u22-jXD2-24" value="Формирование ассортимента" style="rounded=1;whiteSpace=wrap;html=1;fontSize=16;strokeColor=none;shadow=1;" vertex="1" parent="xhNkxKPSbNm9u22-jXD2-36">
          <mxGeometry x="150" y="90" width="170" height="80" as="geometry" />
        </mxCell>
        <mxCell id="xhNkxKPSbNm9u22-jXD2-38" value="" style="group" vertex="1" connectable="0" parent="1">
          <mxGeometry x="1110" y="1145" width="290" height="450" as="geometry" />
        </mxCell>
        <mxCell id="xhNkxKPSbNm9u22-jXD2-37" value="Продавец" style="rounded=0;whiteSpace=wrap;html=1;fillColor=#A680B8;fontSize=42;fontColor=#FFFFFF;verticalAlign=top;spacingTop=8;strokeColor=none;" vertex="1" parent="xhNkxKPSbNm9u22-jXD2-38">
          <mxGeometry width="290" height="450" as="geometry" />
        </mxCell>
        <mxCell id="xhNkxKPSbNm9u22-jXD2-18" value="Предоставление информации&lt;br&gt;о товаре" style="rounded=1;whiteSpace=wrap;html=1;fontSize=16;strokeColor=none;shadow=1;" vertex="1" parent="xhNkxKPSbNm9u22-jXD2-38">
          <mxGeometry x="60" y="90" width="170" height="80" as="geometry" />
        </mxCell>
        <mxCell id="xhNkxKPSbNm9u22-jXD2-19" value="Получение оплата за товар за минусом комиссии" style="rounded=1;whiteSpace=wrap;html=1;fontSize=16;strokeColor=none;shadow=1;" vertex="1" parent="xhNkxKPSbNm9u22-jXD2-38">
          <mxGeometry x="60" y="200" width="170" height="80" as="geometry" />
        </mxCell>
        <mxCell id="xhNkxKPSbNm9u22-jXD2-22" value="Отгрузка товара&lt;br&gt;клиенту" style="rounded=1;whiteSpace=wrap;html=1;fontSize=16;strokeColor=none;shadow=1;" vertex="1" parent="xhNkxKPSbNm9u22-jXD2-38">
          <mxGeometry x="60" y="310" width="170" height="80" as="geometry" />
        </mxCell>
        <mxCell id="xhNkxKPSbNm9u22-jXD2-23" value="" style="edgeStyle=orthogonalEdgeStyle;rounded=0;orthogonalLoop=1;jettySize=auto;html=1;" edge="1" parent="xhNkxKPSbNm9u22-jXD2-38" source="xhNkxKPSbNm9u22-jXD2-19" target="xhNkxKPSbNm9u22-jXD2-22">
          <mxGeometry relative="1" as="geometry" />
        </mxCell>
        <mxCell id="xhNkxKPSbNm9u22-jXD2-40" style="edgeStyle=orthogonalEdgeStyle;orthogonalLoop=1;jettySize=auto;html=1;entryX=0;entryY=0.5;entryDx=0;entryDy=0;curved=1;" edge="1" parent="1" source="f7szadTQui2fWb20hmRs-3" target="f7szadTQui2fWb20hmRs-8">
          <mxGeometry relative="1" as="geometry">
            <Array as="points">
              <mxPoint x="60" y="1410" />
              <mxPoint x="60" y="235" />
            </Array>
          </mxGeometry>
        </mxCell>
        <mxCell id="xhNkxKPSbNm9u22-jXD2-41" style="edgeStyle=orthogonalEdgeStyle;rounded=0;orthogonalLoop=1;jettySize=auto;html=1;" edge="1" parent="1" source="f7szadTQui2fWb20hmRs-3">
          <mxGeometry relative="1" as="geometry">
            <mxPoint x="650" y="1410" as="targetPoint" />
          </mxGeometry>
        </mxCell>
        <mxCell id="xhNkxKPSbNm9u22-jXD2-42" style="edgeStyle=orthogonalEdgeStyle;rounded=0;orthogonalLoop=1;jettySize=auto;html=1;entryX=1;entryY=0.5;entryDx=0;entryDy=0;dashed=1;dashPattern=12 12;" edge="1" parent="1" source="xhNkxKPSbNm9u22-jXD2-18" target="xhNkxKPSbNm9u22-jXD2-24">
          <mxGeometry relative="1" as="geometry" />
        </mxCell>
        <mxCell id="xhNkxKPSbNm9u22-jXD2-43" style="edgeStyle=orthogonalEdgeStyle;orthogonalLoop=1;jettySize=auto;html=1;entryX=1;entryY=0.25;entryDx=0;entryDy=0;curved=1;startArrow=classic;startFill=1;strokeWidth=1;dashed=1;dashPattern=1 4;" edge="1" parent="1" source="xhNkxKPSbNm9u22-jXD2-10" target="f7szadTQui2fWb20hmRs-33">
          <mxGeometry relative="1" as="geometry">
            <Array as="points">
              <mxPoint x="980" y="1530" />
              <mxPoint x="980" y="731" />
            </Array>
          </mxGeometry>
        </mxCell>
        <mxCell id="xhNkxKPSbNm9u22-jXD2-44" style="edgeStyle=orthogonalEdgeStyle;orthogonalLoop=1;jettySize=auto;html=1;entryX=0;entryY=0.25;entryDx=0;entryDy=0;curved=1;" edge="1" parent="1" source="xhNkxKPSbNm9u22-jXD2-15" target="f7szadTQui2fWb20hmRs-41">
          <mxGeometry relative="1" as="geometry">
            <Array as="points">
              <mxPoint x="970" y="1785" />
              <mxPoint x="970" y="213" />
            </Array>
          </mxGeometry>
        </mxCell>
        <mxCell id="xhNkxKPSbNm9u22-jXD2-46" style="edgeStyle=orthogonalEdgeStyle;orthogonalLoop=1;jettySize=auto;html=1;entryX=1;entryY=0.5;entryDx=0;entryDy=0;exitX=1;exitY=0.5;exitDx=0;exitDy=0;curved=1;" edge="1" parent="1" source="xhNkxKPSbNm9u22-jXD2-4" target="xhNkxKPSbNm9u22-jXD2-19">
          <mxGeometry relative="1" as="geometry">
            <Array as="points">
              <mxPoint x="1420" y="755" />
              <mxPoint x="1420" y="1385" />
            </Array>
          </mxGeometry>
        </mxCell>
      </root>
    </mxGraphModel>
  </diagram>
</mxfile>
